<mxfile host="Electron" modified="2023-08-02T13:49:20.735Z" agent="Mozilla/5.0 (Windows NT 10.0; Win64; x64) AppleWebKit/537.36 (KHTML, like Gecko) draw.io/21.6.5 Chrome/114.0.5735.243 Electron/25.3.1 Safari/537.36" etag="h3k2spVQ0kvCG4L8TE3K" version="21.6.5" type="device">
  <diagram name="Page-1" id="bDlqiz4IERHXxEkZ9xLS">
    <mxGraphModel dx="864" dy="495" grid="1" gridSize="10" guides="1" tooltips="1" connect="1" arrows="1" fold="1" page="1" pageScale="1" pageWidth="1169" pageHeight="827" math="0" shadow="0">
      <root>
        <mxCell id="0" />
        <mxCell id="1" parent="0" />
        <mxCell id="pAZlCPyRJkJAHvEVyCS2-2" style="edgeStyle=orthogonalEdgeStyle;rounded=0;orthogonalLoop=1;jettySize=auto;html=1;exitX=1;exitY=0.25;exitDx=0;exitDy=0;entryX=0;entryY=0.25;entryDx=0;entryDy=0;endArrow=none;endFill=0;" edge="1" parent="1" source="jK_DcaLakZgWedDVneFn-19" target="pAZlCPyRJkJAHvEVyCS2-1">
          <mxGeometry relative="1" as="geometry" />
        </mxCell>
        <mxCell id="pAZlCPyRJkJAHvEVyCS2-3" value="account" style="edgeLabel;html=1;align=center;verticalAlign=middle;resizable=0;points=[];" vertex="1" connectable="0" parent="pAZlCPyRJkJAHvEVyCS2-2">
          <mxGeometry x="-0.4857" y="-1" relative="1" as="geometry">
            <mxPoint x="-9" y="-12" as="offset" />
          </mxGeometry>
        </mxCell>
        <mxCell id="pAZlCPyRJkJAHvEVyCS2-4" value="1" style="edgeLabel;html=1;align=center;verticalAlign=middle;resizable=0;points=[];" vertex="1" connectable="0" parent="pAZlCPyRJkJAHvEVyCS2-2">
          <mxGeometry x="0.4143" y="1" relative="1" as="geometry">
            <mxPoint x="27" y="-10" as="offset" />
          </mxGeometry>
        </mxCell>
        <mxCell id="pAZlCPyRJkJAHvEVyCS2-5" value="account type" style="edgeLabel;html=1;align=center;verticalAlign=middle;resizable=0;points=[];" vertex="1" connectable="0" parent="pAZlCPyRJkJAHvEVyCS2-2">
          <mxGeometry x="0.4857" relative="1" as="geometry">
            <mxPoint x="-4" y="10" as="offset" />
          </mxGeometry>
        </mxCell>
        <mxCell id="pAZlCPyRJkJAHvEVyCS2-6" value="*" style="edgeLabel;html=1;align=center;verticalAlign=middle;resizable=0;points=[];" vertex="1" connectable="0" parent="pAZlCPyRJkJAHvEVyCS2-2">
          <mxGeometry x="-0.6714" y="2" relative="1" as="geometry">
            <mxPoint x="-16" y="10" as="offset" />
          </mxGeometry>
        </mxCell>
        <mxCell id="jK_DcaLakZgWedDVneFn-19" value="&lt;b&gt;Account&lt;/b&gt;" style="fontStyle=0;html=1;whiteSpace=wrap;" parent="1" vertex="1">
          <mxGeometry x="100" y="40" width="80" height="40" as="geometry" />
        </mxCell>
        <mxCell id="jK_DcaLakZgWedDVneFn-21" value="&lt;b&gt;Savings&lt;br&gt;Account&lt;br&gt;&lt;/b&gt;" style="fontStyle=0;html=1;whiteSpace=wrap;" parent="1" vertex="1">
          <mxGeometry x="100" y="190" width="80" height="40" as="geometry" />
        </mxCell>
        <mxCell id="pAZlCPyRJkJAHvEVyCS2-29" style="edgeStyle=orthogonalEdgeStyle;rounded=0;orthogonalLoop=1;jettySize=auto;html=1;exitX=0;exitY=0.5;exitDx=0;exitDy=0;endArrow=none;endFill=0;" edge="1" parent="1" source="jK_DcaLakZgWedDVneFn-22">
          <mxGeometry relative="1" as="geometry">
            <mxPoint x="80" y="160" as="targetPoint" />
          </mxGeometry>
        </mxCell>
        <mxCell id="jK_DcaLakZgWedDVneFn-22" value="&lt;b&gt;Checking&lt;br&gt;Account&lt;br&gt;&lt;/b&gt;" style="fontStyle=0;html=1;whiteSpace=wrap;" parent="1" vertex="1">
          <mxGeometry x="100" y="140" width="80" height="40" as="geometry" />
        </mxCell>
        <mxCell id="pAZlCPyRJkJAHvEVyCS2-1" value="&lt;b&gt;Account&lt;br&gt;Type&lt;br&gt;&lt;/b&gt;" style="fontStyle=0;html=1;whiteSpace=wrap;" vertex="1" parent="1">
          <mxGeometry x="300" y="40" width="100" height="40" as="geometry" />
        </mxCell>
        <mxCell id="pAZlCPyRJkJAHvEVyCS2-26" value="{disjoint, incomplete}" style="endArrow=block;html=1;rounded=0;align=center;verticalAlign=bottom;endFill=0;labelBackgroundColor=none;endSize=8;exitX=0;exitY=0.5;exitDx=0;exitDy=0;entryX=0.25;entryY=1;entryDx=0;entryDy=0;" edge="1" parent="1" source="jK_DcaLakZgWedDVneFn-21" target="jK_DcaLakZgWedDVneFn-19">
          <mxGeometry x="0.6842" y="-60" relative="1" as="geometry">
            <mxPoint x="100" y="310" as="sourcePoint" />
            <mxPoint x="140" y="80" as="targetPoint" />
            <Array as="points">
              <mxPoint x="80" y="210" />
              <mxPoint x="80" y="120" />
              <mxPoint x="120" y="120" />
            </Array>
            <mxPoint as="offset" />
          </mxGeometry>
        </mxCell>
        <mxCell id="pAZlCPyRJkJAHvEVyCS2-27" value=":AccountType" style="resizable=0;html=1;align=center;verticalAlign=bottom;labelBackgroundColor=none;fontSize=11;" connectable="0" vertex="1" parent="pAZlCPyRJkJAHvEVyCS2-26">
          <mxGeometry relative="1" as="geometry">
            <mxPoint x="80" y="-11" as="offset" />
          </mxGeometry>
        </mxCell>
        <mxCell id="pAZlCPyRJkJAHvEVyCS2-34" style="edgeStyle=orthogonalEdgeStyle;rounded=0;orthogonalLoop=1;jettySize=auto;html=1;exitX=1;exitY=0.25;exitDx=0;exitDy=0;entryX=0;entryY=0.25;entryDx=0;entryDy=0;endArrow=none;endFill=0;" edge="1" source="pAZlCPyRJkJAHvEVyCS2-39" target="pAZlCPyRJkJAHvEVyCS2-43" parent="1">
          <mxGeometry relative="1" as="geometry" />
        </mxCell>
        <mxCell id="pAZlCPyRJkJAHvEVyCS2-35" value="desease" style="edgeLabel;html=1;align=center;verticalAlign=middle;resizable=0;points=[];" vertex="1" connectable="0" parent="pAZlCPyRJkJAHvEVyCS2-34">
          <mxGeometry x="-0.4857" y="-1" relative="1" as="geometry">
            <mxPoint x="-9" y="-12" as="offset" />
          </mxGeometry>
        </mxCell>
        <mxCell id="pAZlCPyRJkJAHvEVyCS2-36" value="1" style="edgeLabel;html=1;align=center;verticalAlign=middle;resizable=0;points=[];" vertex="1" connectable="0" parent="pAZlCPyRJkJAHvEVyCS2-34">
          <mxGeometry x="0.4143" y="1" relative="1" as="geometry">
            <mxPoint x="27" y="-10" as="offset" />
          </mxGeometry>
        </mxCell>
        <mxCell id="pAZlCPyRJkJAHvEVyCS2-37" value="classification" style="edgeLabel;html=1;align=center;verticalAlign=middle;resizable=0;points=[];" vertex="1" connectable="0" parent="pAZlCPyRJkJAHvEVyCS2-34">
          <mxGeometry x="0.4857" relative="1" as="geometry">
            <mxPoint x="-4" y="10" as="offset" />
          </mxGeometry>
        </mxCell>
        <mxCell id="pAZlCPyRJkJAHvEVyCS2-38" value="*" style="edgeLabel;html=1;align=center;verticalAlign=middle;resizable=0;points=[];" vertex="1" connectable="0" parent="pAZlCPyRJkJAHvEVyCS2-34">
          <mxGeometry x="-0.6714" y="2" relative="1" as="geometry">
            <mxPoint x="-16" y="10" as="offset" />
          </mxGeometry>
        </mxCell>
        <mxCell id="pAZlCPyRJkJAHvEVyCS2-39" value="&lt;b&gt;Disease&lt;br&gt;Occurence&lt;br&gt;&lt;/b&gt;" style="fontStyle=0;html=1;whiteSpace=wrap;" vertex="1" parent="1">
          <mxGeometry x="100" y="280" width="80" height="40" as="geometry" />
        </mxCell>
        <mxCell id="pAZlCPyRJkJAHvEVyCS2-40" value="&lt;b&gt;Measles&lt;br&gt;&lt;/b&gt;" style="fontStyle=0;html=1;whiteSpace=wrap;" vertex="1" parent="1">
          <mxGeometry x="100" y="430" width="80" height="40" as="geometry" />
        </mxCell>
        <mxCell id="pAZlCPyRJkJAHvEVyCS2-41" style="edgeStyle=orthogonalEdgeStyle;rounded=0;orthogonalLoop=1;jettySize=auto;html=1;exitX=0;exitY=0.5;exitDx=0;exitDy=0;endArrow=none;endFill=0;" edge="1" source="pAZlCPyRJkJAHvEVyCS2-42" parent="1">
          <mxGeometry relative="1" as="geometry">
            <mxPoint x="80" y="400" as="targetPoint" />
          </mxGeometry>
        </mxCell>
        <mxCell id="pAZlCPyRJkJAHvEVyCS2-42" value="&lt;b&gt;ChickenPox&lt;br&gt;&lt;/b&gt;" style="fontStyle=0;html=1;whiteSpace=wrap;" vertex="1" parent="1">
          <mxGeometry x="100" y="380" width="80" height="40" as="geometry" />
        </mxCell>
        <mxCell id="pAZlCPyRJkJAHvEVyCS2-43" value="&lt;b&gt;Disease&lt;br&gt;Classification&lt;br&gt;&lt;/b&gt;" style="fontStyle=0;html=1;whiteSpace=wrap;" vertex="1" parent="1">
          <mxGeometry x="300" y="280" width="100" height="40" as="geometry" />
        </mxCell>
        <mxCell id="pAZlCPyRJkJAHvEVyCS2-44" value="{disjoint, incomplete}" style="endArrow=block;html=1;rounded=0;align=center;verticalAlign=bottom;endFill=0;labelBackgroundColor=none;endSize=8;exitX=0;exitY=0.5;exitDx=0;exitDy=0;entryX=0.25;entryY=1;entryDx=0;entryDy=0;" edge="1" source="pAZlCPyRJkJAHvEVyCS2-40" target="pAZlCPyRJkJAHvEVyCS2-39" parent="1">
          <mxGeometry x="0.6842" y="-60" relative="1" as="geometry">
            <mxPoint x="100" y="550" as="sourcePoint" />
            <mxPoint x="140" y="320" as="targetPoint" />
            <Array as="points">
              <mxPoint x="80" y="450" />
              <mxPoint x="80" y="360" />
              <mxPoint x="120" y="360" />
            </Array>
            <mxPoint as="offset" />
          </mxGeometry>
        </mxCell>
        <mxCell id="pAZlCPyRJkJAHvEVyCS2-45" value=":DiseaseClassification" style="resizable=0;html=1;align=center;verticalAlign=bottom;labelBackgroundColor=none;fontSize=11;" connectable="0" vertex="1" parent="pAZlCPyRJkJAHvEVyCS2-44">
          <mxGeometry relative="1" as="geometry">
            <mxPoint x="102" y="-11" as="offset" />
          </mxGeometry>
        </mxCell>
        <mxCell id="pAZlCPyRJkJAHvEVyCS2-46" style="edgeStyle=orthogonalEdgeStyle;rounded=0;orthogonalLoop=1;jettySize=auto;html=1;exitX=1;exitY=0.25;exitDx=0;exitDy=0;entryX=0;entryY=0.25;entryDx=0;entryDy=0;endArrow=none;endFill=0;" edge="1" source="pAZlCPyRJkJAHvEVyCS2-51" target="pAZlCPyRJkJAHvEVyCS2-55" parent="1">
          <mxGeometry relative="1" as="geometry" />
        </mxCell>
        <mxCell id="pAZlCPyRJkJAHvEVyCS2-47" value="vehicle" style="edgeLabel;html=1;align=center;verticalAlign=middle;resizable=0;points=[];" vertex="1" connectable="0" parent="pAZlCPyRJkJAHvEVyCS2-46">
          <mxGeometry x="-0.4857" y="-1" relative="1" as="geometry">
            <mxPoint x="-9" y="-12" as="offset" />
          </mxGeometry>
        </mxCell>
        <mxCell id="pAZlCPyRJkJAHvEVyCS2-48" value="1" style="edgeLabel;html=1;align=center;verticalAlign=middle;resizable=0;points=[];" vertex="1" connectable="0" parent="pAZlCPyRJkJAHvEVyCS2-46">
          <mxGeometry x="0.4143" y="1" relative="1" as="geometry">
            <mxPoint x="27" y="-10" as="offset" />
          </mxGeometry>
        </mxCell>
        <mxCell id="pAZlCPyRJkJAHvEVyCS2-49" value="vehicle type" style="edgeLabel;html=1;align=center;verticalAlign=middle;resizable=0;points=[];" vertex="1" connectable="0" parent="pAZlCPyRJkJAHvEVyCS2-46">
          <mxGeometry x="0.4857" relative="1" as="geometry">
            <mxPoint x="-4" y="10" as="offset" />
          </mxGeometry>
        </mxCell>
        <mxCell id="pAZlCPyRJkJAHvEVyCS2-50" value="*" style="edgeLabel;html=1;align=center;verticalAlign=middle;resizable=0;points=[];" vertex="1" connectable="0" parent="pAZlCPyRJkJAHvEVyCS2-46">
          <mxGeometry x="-0.6714" y="2" relative="1" as="geometry">
            <mxPoint x="-16" y="10" as="offset" />
          </mxGeometry>
        </mxCell>
        <mxCell id="pAZlCPyRJkJAHvEVyCS2-51" value="&lt;b&gt;Vehicle&lt;/b&gt;" style="fontStyle=0;html=1;whiteSpace=wrap;" vertex="1" parent="1">
          <mxGeometry x="460" y="41" width="80" height="40" as="geometry" />
        </mxCell>
        <mxCell id="pAZlCPyRJkJAHvEVyCS2-52" value="&lt;b&gt;Car&lt;br&gt;&lt;/b&gt;" style="fontStyle=0;html=1;whiteSpace=wrap;" vertex="1" parent="1">
          <mxGeometry x="460" y="191" width="80" height="40" as="geometry" />
        </mxCell>
        <mxCell id="pAZlCPyRJkJAHvEVyCS2-53" style="edgeStyle=orthogonalEdgeStyle;rounded=0;orthogonalLoop=1;jettySize=auto;html=1;exitX=0;exitY=0.5;exitDx=0;exitDy=0;endArrow=none;endFill=0;" edge="1" source="pAZlCPyRJkJAHvEVyCS2-54" parent="1">
          <mxGeometry relative="1" as="geometry">
            <mxPoint x="440" y="161" as="targetPoint" />
          </mxGeometry>
        </mxCell>
        <mxCell id="pAZlCPyRJkJAHvEVyCS2-54" value="&lt;b&gt;Truck&lt;br&gt;&lt;/b&gt;" style="fontStyle=0;html=1;whiteSpace=wrap;" vertex="1" parent="1">
          <mxGeometry x="460" y="141" width="80" height="40" as="geometry" />
        </mxCell>
        <mxCell id="pAZlCPyRJkJAHvEVyCS2-55" value="&lt;b&gt;Vehicle&lt;br&gt;Type&lt;br&gt;&lt;/b&gt;" style="fontStyle=0;html=1;whiteSpace=wrap;" vertex="1" parent="1">
          <mxGeometry x="660" y="41" width="100" height="40" as="geometry" />
        </mxCell>
        <mxCell id="pAZlCPyRJkJAHvEVyCS2-56" value="{disjoint, incomplete}" style="endArrow=block;html=1;rounded=0;align=center;verticalAlign=bottom;endFill=0;labelBackgroundColor=none;endSize=8;exitX=0;exitY=0.5;exitDx=0;exitDy=0;entryX=0.25;entryY=1;entryDx=0;entryDy=0;" edge="1" source="pAZlCPyRJkJAHvEVyCS2-52" target="pAZlCPyRJkJAHvEVyCS2-51" parent="1">
          <mxGeometry x="0.6842" y="-60" relative="1" as="geometry">
            <mxPoint x="460" y="311" as="sourcePoint" />
            <mxPoint x="500" y="81" as="targetPoint" />
            <Array as="points">
              <mxPoint x="440" y="211" />
              <mxPoint x="440" y="121" />
              <mxPoint x="480" y="121" />
            </Array>
            <mxPoint as="offset" />
          </mxGeometry>
        </mxCell>
        <mxCell id="pAZlCPyRJkJAHvEVyCS2-57" value=":VehicleType" style="resizable=0;html=1;align=center;verticalAlign=bottom;labelBackgroundColor=none;fontSize=11;" connectable="0" vertex="1" parent="pAZlCPyRJkJAHvEVyCS2-56">
          <mxGeometry relative="1" as="geometry">
            <mxPoint x="80" y="-11" as="offset" />
          </mxGeometry>
        </mxCell>
        <mxCell id="pAZlCPyRJkJAHvEVyCS2-58" style="edgeStyle=orthogonalEdgeStyle;rounded=0;orthogonalLoop=1;jettySize=auto;html=1;exitX=1;exitY=0.25;exitDx=0;exitDy=0;entryX=0;entryY=0.25;entryDx=0;entryDy=0;endArrow=none;endFill=0;" edge="1" source="pAZlCPyRJkJAHvEVyCS2-63" target="pAZlCPyRJkJAHvEVyCS2-67" parent="1">
          <mxGeometry relative="1" as="geometry" />
        </mxCell>
        <mxCell id="pAZlCPyRJkJAHvEVyCS2-59" value="service" style="edgeLabel;html=1;align=center;verticalAlign=middle;resizable=0;points=[];" vertex="1" connectable="0" parent="pAZlCPyRJkJAHvEVyCS2-58">
          <mxGeometry x="-0.4857" y="-1" relative="1" as="geometry">
            <mxPoint x="-9" y="-12" as="offset" />
          </mxGeometry>
        </mxCell>
        <mxCell id="pAZlCPyRJkJAHvEVyCS2-60" value="1" style="edgeLabel;html=1;align=center;verticalAlign=middle;resizable=0;points=[];" vertex="1" connectable="0" parent="pAZlCPyRJkJAHvEVyCS2-58">
          <mxGeometry x="0.4143" y="1" relative="1" as="geometry">
            <mxPoint x="27" y="-10" as="offset" />
          </mxGeometry>
        </mxCell>
        <mxCell id="pAZlCPyRJkJAHvEVyCS2-61" value="category" style="edgeLabel;html=1;align=center;verticalAlign=middle;resizable=0;points=[];" vertex="1" connectable="0" parent="pAZlCPyRJkJAHvEVyCS2-58">
          <mxGeometry x="0.4857" relative="1" as="geometry">
            <mxPoint x="-4" y="10" as="offset" />
          </mxGeometry>
        </mxCell>
        <mxCell id="pAZlCPyRJkJAHvEVyCS2-62" value="*" style="edgeLabel;html=1;align=center;verticalAlign=middle;resizable=0;points=[];" vertex="1" connectable="0" parent="pAZlCPyRJkJAHvEVyCS2-58">
          <mxGeometry x="-0.6714" y="2" relative="1" as="geometry">
            <mxPoint x="-16" y="10" as="offset" />
          </mxGeometry>
        </mxCell>
        <mxCell id="pAZlCPyRJkJAHvEVyCS2-63" value="&lt;b&gt;Installed&lt;br&gt;Telephone&lt;br&gt;Service&lt;br&gt;&lt;/b&gt;" style="fontStyle=0;html=1;whiteSpace=wrap;" vertex="1" parent="1">
          <mxGeometry x="460" y="281" width="80" height="40" as="geometry" />
        </mxCell>
        <mxCell id="pAZlCPyRJkJAHvEVyCS2-64" value="&lt;b&gt;Call&lt;br&gt;Transferring&lt;br&gt;&lt;/b&gt;" style="fontStyle=0;html=1;whiteSpace=wrap;" vertex="1" parent="1">
          <mxGeometry x="460" y="431" width="80" height="40" as="geometry" />
        </mxCell>
        <mxCell id="pAZlCPyRJkJAHvEVyCS2-65" style="edgeStyle=orthogonalEdgeStyle;rounded=0;orthogonalLoop=1;jettySize=auto;html=1;exitX=0;exitY=0.5;exitDx=0;exitDy=0;endArrow=none;endFill=0;" edge="1" source="pAZlCPyRJkJAHvEVyCS2-66" parent="1">
          <mxGeometry relative="1" as="geometry">
            <mxPoint x="440" y="401" as="targetPoint" />
          </mxGeometry>
        </mxCell>
        <mxCell id="pAZlCPyRJkJAHvEVyCS2-66" value="&lt;b&gt;Call&lt;br&gt;Waiting&lt;br&gt;&lt;/b&gt;" style="fontStyle=0;html=1;whiteSpace=wrap;" vertex="1" parent="1">
          <mxGeometry x="460" y="381" width="80" height="40" as="geometry" />
        </mxCell>
        <mxCell id="pAZlCPyRJkJAHvEVyCS2-67" value="&lt;b&gt;Telephone&lt;br&gt;Service&lt;br&gt;Category&lt;br&gt;&lt;/b&gt;" style="fontStyle=0;html=1;whiteSpace=wrap;" vertex="1" parent="1">
          <mxGeometry x="660" y="281" width="100" height="40" as="geometry" />
        </mxCell>
        <mxCell id="pAZlCPyRJkJAHvEVyCS2-68" value="{disjoint, incomplete}" style="endArrow=block;html=1;rounded=0;align=center;verticalAlign=bottom;endFill=0;labelBackgroundColor=none;endSize=8;exitX=0;exitY=0.5;exitDx=0;exitDy=0;entryX=0.25;entryY=1;entryDx=0;entryDy=0;" edge="1" source="pAZlCPyRJkJAHvEVyCS2-64" target="pAZlCPyRJkJAHvEVyCS2-63" parent="1">
          <mxGeometry x="0.6842" y="-60" relative="1" as="geometry">
            <mxPoint x="460" y="551" as="sourcePoint" />
            <mxPoint x="500" y="321" as="targetPoint" />
            <Array as="points">
              <mxPoint x="440" y="451" />
              <mxPoint x="440" y="361" />
              <mxPoint x="480" y="361" />
            </Array>
            <mxPoint as="offset" />
          </mxGeometry>
        </mxCell>
        <mxCell id="pAZlCPyRJkJAHvEVyCS2-69" value=":TelephoneServiceCategory" style="resizable=0;html=1;align=center;verticalAlign=bottom;labelBackgroundColor=none;fontSize=11;" connectable="0" vertex="1" parent="pAZlCPyRJkJAHvEVyCS2-68">
          <mxGeometry relative="1" as="geometry">
            <mxPoint x="116" y="-11" as="offset" />
          </mxGeometry>
        </mxCell>
      </root>
    </mxGraphModel>
  </diagram>
</mxfile>
